<?xml version="1.0" encoding="UTF-8" standalone="no"?>
<svg width="248px" height="102px" viewBox="0 0 248 102" version="1.1" xmlns="http://www.w3.org/2000/svg" xmlns:xlink="http://www.w3.org/1999/xlink">
    <title>lens sdk logo</title>
    <defs></defs>

    <script src="https://use.typekit.net/ztq7far.js"></script>
    <script>try{Typekit.load({ async: true });}catch(e){}</script>
    <g id="desktop-+-mobile" stroke="none" stroke-width="1" fill="none" fill-rule="evenodd">
        <g id="Desktop" transform="translate(0.000000, -11.000000)">
            <g id="SideNavigation" transform="translate(-2.000000, 0.000000)">
                <g id="lens-sdk-logo" transform="translate(0.000000, 11.000000)">
                    <rect id="Rectangle-8" fill="#F5FAF9" x="0" y="0" width="250" height="102"></rect>
                    <text id="Lens-API" font-family="proxima-nova, Proxima Nova" font-size="40" font-weight="bold" fill="#3E3D40">
                        <tspan x="43" y="59">Lens API</tspan>
                    </text>
                     <a href="https://markable.ai">
                    <path d="M125.56,65.328 L128.376,65.328 L131.16,69.424 L133.928,65.328 L136.744,65.328 L136.744,76 L133.336,76 L133.336,72.16 L131.16,75.36 L128.968,72.16 L128.968,76 L125.56,76 L125.56,65.328 Z M141.032,65.328 L143.592,65.328 L147.64,76 L144.28,76 L143.928,75.04 L140.696,75.04 L140.344,76 L136.984,76 L141.032,65.328 Z M143.032,72.688 L142.312,70.816 L141.592,72.688 L143.032,72.688 Z M147.88,65.328 L151.56,65.328 C152.24267,65.328 152.874664,65.4186658 153.456,65.6 C154.037336,65.7813342 154.541331,66.0479982 154.968,66.4 C155.394669,66.7520018 155.727999,67.1866641 155.968,67.704 C156.208001,68.2213359 156.328,68.8159966 156.328,69.488 C156.328,70.021336 156.253334,70.4746648 156.104,70.848 C155.954666,71.2213352 155.789334,71.5306654 155.608,71.776 C155.394666,72.0533347 155.154668,72.287999 154.888,72.48 L156.888,76 L152.888,76 L151.288,73.296 L151.288,76 L147.88,76 L147.88,65.328 Z M151.288,70.576 L151.464,70.576 C151.869335,70.576 152.213332,70.4853342 152.496,70.304 C152.778668,70.1226658 152.92,69.8186688 152.92,69.392 C152.92,68.9653312 152.778668,68.6613342 152.496,68.48 C152.213332,68.2986658 151.869335,68.208 151.464,68.208 L151.288,68.208 L151.288,70.576 Z M157.208,65.328 L160.664,65.328 L160.664,67.792 L162.68,65.328 L166.856,65.328 L163.096,70.208 L167.048,76 L162.936,76 L160.664,72.704 L160.664,76 L157.208,76 L157.208,65.328 Z M170.536,65.328 L173.096,65.328 L177.144,76 L173.784,76 L173.432,75.04 L170.2,75.04 L169.848,76 L166.488,76 L170.536,65.328 Z M172.536,72.688 L171.816,70.816 L171.096,72.688 L172.536,72.688 Z M177.384,65.328 L181.56,65.328 C182.093336,65.328 182.581331,65.3893327 183.024,65.512 C183.466669,65.6346673 183.845332,65.8159988 184.16,66.056 C184.474668,66.2960012 184.719999,66.5946649 184.896,66.952 C185.072001,67.3093351 185.16,67.7279976 185.16,68.208 C185.16,68.549335 185.117334,68.8399988 185.032,69.08 C184.946666,69.3200012 184.856,69.5199992 184.76,69.68 C184.642666,69.872001 184.509334,70.0319994 184.36,70.16 C184.594668,70.3093341 184.807999,70.5013322 185,70.736 C185.160001,70.9386677 185.306666,71.1946651 185.44,71.504 C185.573334,71.8133349 185.64,72.1919978 185.64,72.64 C185.64,73.1520026 185.549334,73.6159979 185.368,74.032 C185.186666,74.4480021 184.928002,74.8026652 184.592,75.096 C184.255998,75.3893348 183.845336,75.6133326 183.36,75.768 C182.874664,75.9226674 182.333336,76 181.736,76 L177.384,76 L177.384,65.328 Z M181.064,73.488 C181.874671,73.488 182.28,73.1786698 182.28,72.56 C182.28,71.9413302 181.874671,71.632 181.064,71.632 L180.68,71.632 L180.68,73.488 L181.064,73.488 Z M181.864,68.576 C181.864,68.0853309 181.597336,67.84 181.064,67.84 L180.68,67.84 L180.68,69.312 L181.064,69.312 C181.597336,69.312 181.864,69.0666691 181.864,68.576 Z M186.36,65.328 L189.912,65.328 L189.912,73.2 L192.856,73.2 L192.856,76 L186.36,76 L186.36,65.328 Z M193.416,65.328 L199.704,65.328 L199.704,68.128 L196.824,68.128 L196.824,69.312 L199.656,69.312 L199.656,71.968 L196.824,71.968 L196.824,73.2 L199.816,73.2 L199.816,76 L193.416,76 L193.416,65.328 Z" id="MARKABLE" fill="#5BC4B4"></path>
                    <path d="M108.134,75 L108.862,75 L108.862,73.922 C109.338,74.622 110.206,75.168 111.214,75.168 C113.006,75.168 114.238,73.796 114.238,71.626 C114.238,69.484 113.02,68.07 111.214,68.07 C110.262,68.07 109.408,68.56 108.862,69.33 L108.862,65.662 L108.134,65.662 L108.134,75 Z M108.862,73.306 L108.862,69.96 C109.254,69.316 110.15,68.728 111.088,68.728 C112.6,68.728 113.454,69.988 113.454,71.626 C113.454,73.264 112.6,74.51 111.088,74.51 C110.15,74.51 109.254,73.95 108.862,73.306 Z M120.804,68.238 L118.368,74.146 L115.904,68.238 L115.092,68.238 L117.948,75.056 L117.416,76.26 C117.15,76.904 116.842,77.086 116.394,77.086 C116.226,77.086 115.96,77.044 115.806,76.974 L115.68,77.646 C115.862,77.702 116.17,77.744 116.394,77.744 C117.192,77.744 117.766,77.338 118.13,76.484 L121.63,68.238 L120.804,68.238 Z" id="by" fill="#5BC4B4"></path>
                    </a>
                </g>
            </g>
        </g>
    </g>
</svg>