<?xml version="1.0" encoding="UTF-8" standalone="no"?>
<svg width="17px" height="17px" viewBox="0 0 17 17" version="1.1" xmlns="http://www.w3.org/2000/svg" xmlns:xlink="http://www.w3.org/1999/xlink">
    <!-- Generator: Sketch 41.2 (35397) - http://www.bohemiancoding.com/sketch -->
    <title>success</title>
    <desc>Created with Sketch.</desc>
    <defs></defs>
    <g id="desktop-+-mobile" stroke="none" stroke-width="1" fill="none" fill-rule="evenodd">
        <g id="Desktop" transform="translate(-270.000000, -1046.000000)" stroke="#5BC4B4" stroke-width="0.6" fill="#5BC4B4">
            <g id="MainContentLeft" transform="translate(243.000000, 87.000000)">
                <g id="attention" transform="translate(2.000000, 960.000000)">
                    <path d="M36.3251562,4.2515625 C36.100625,4.1203125 35.8142187,4.2 35.6848437,4.4203125 L32.6871875,9.6140625 L31.01,8.0671875 C30.8328125,7.8796875 30.5360937,7.8703125 30.3471875,8.0484375 C30.1582812,8.221875 30.1484375,8.521875 30.325625,8.709375 L32.46875,10.6875 C32.6454687,10.875 32.9421875,10.884375 33.1310937,10.70625 C33.1882812,10.6546875 36.4967187,4.8890625 36.4967187,4.8890625 C36.6260937,4.66875 36.5492187,4.378125 36.3251562,4.2515625 L36.3251562,4.2515625 Z M33.5,14.0625 C29.875625,14.0625 26.9375,11.1234375 26.9375,7.5 C26.9375,3.8765625 29.875625,0.9375 33.5,0.9375 C37.124375,0.9375 40.0625,3.8765625 40.0625,7.5 C40.0625,11.1234375 37.124375,14.0625 33.5,14.0625 L33.5,14.0625 Z M33.5,0 C29.358125,0 26,3.35625 26,7.5 C26,11.64375 29.358125,15 33.5,15 C37.641875,15 41,11.64375 41,7.5 C41,3.35625 37.641875,0 33.5,0 L33.5,0 Z" id="success"></path>
                </g>
            </g>
        </g>
    </g>
</svg>